<?xml version="1.0" encoding="UTF-8" standalone="no"?><!DOCTYPE svg PUBLIC "-//W3C//DTD SVG 1.1//EN" "http://www.w3.org/Graphics/SVG/1.1/DTD/svg11.dtd"><svg width="100%" height="100%" viewBox="0 0 2480 802" version="1.1" xmlns="http://www.w3.org/2000/svg" xmlns:xlink="http://www.w3.org/1999/xlink" xml:space="preserve" xmlns:serif="http://www.serif.com/" style="fill-rule:evenodd;clip-rule:evenodd;stroke-linejoin:round;stroke-miterlimit:2;"><g id="Logo"></g><g id="Logo1" serif:id="Logo"><path d="M404.272,543.566l0,-213.446l179.367,106.725l-179.367,106.721Zm70.85,-313.891c-114.795,0 -207.166,93.27 -207.166,207.17c0,113.896 92.371,207.167 207.166,207.167c114.796,0 207.171,-92.375 207.171,-207.167c0,-114.795 -92.375,-207.17 -207.171,-207.17m245.734,-4.484c-8.967,-9.866 -23.317,-10.762 -33.184,-1.796l-0.895,0.9c-8.071,8.071 -8.071,21.525 -0.9,30.492c42.154,48.429 67.266,112.104 67.266,181.158c0,69.059 -25.112,132.734 -67.266,181.159c-8.071,8.971 -8.071,22.425 0.9,30.496l0.895,0.9c8.967,8.966 24.217,8.066 33.184,-1.796c49.325,-56.504 78.921,-130.938 78.921,-211.654c0,-78.921 -29.596,-152.463 -78.921,-209.859m78.921,-80.716c-8.071,-8.967 -23.317,-8.967 -32.288,0l-0.896,0.9c-8.071,8.07 -8.071,21.52 0,30.487c61.884,69.058 99.55,160.538 99.55,260.983c0,100.442 -37.666,191.021 -99.55,260.975c-8.071,8.971 -8.071,22.421 0,30.496l0.896,0.896c8.971,8.967 23.321,8.967 32.288,0c69.95,-77.129 112.104,-179.367 112.104,-292.367c0,-112.108 -43.046,-214.345 -112.104,-292.37m-715.671,292.37c0,-100.445 37.666,-191.025 99.546,-260.983c8.07,-8.967 8.07,-22.417 0,-30.487l-0.896,-0.9c-8.967,-8.967 -23.317,-8.967 -32.288,0c-69.054,78.025 -112.104,180.262 -112.104,292.37c0,112.105 42.15,214.342 112.104,292.367c8.071,8.967 23.321,8.967 32.288,0l0.896,-0.896c8.07,-8.075 8.07,-21.525 0,-30.496c-61.88,-69.954 -99.546,-160.533 -99.546,-260.975m112.1,0c0,-69.058 25.112,-132.733 67.266,-181.162c8.071,-8.967 8.071,-22.421 -0.9,-30.492l-0.895,-0.896c-8.967,-8.97 -24.217,-8.075 -33.184,1.792c-48.429,56.5 -78.025,130.042 -78.025,210.758c0,80.713 29.596,154.255 78.921,211.655c8.971,9.862 23.321,10.758 33.183,1.787l0.9,-0.896c8.071,-8.071 8.071,-21.525 0.896,-30.491c-43.05,-49.325 -68.162,-113 -68.162,-182.055" style="fill:#fff;fill-rule:nonzero;"/><g><path d="M1196.54,477.793l-99.987,0l0,97.179c0,7.771 -3.884,11.646 -11.642,11.646l-44.975,0c-7.767,0 -11.646,-3.875 -11.646,-11.646l0,-260.204c0,-7.763 3.879,-11.646 11.646,-11.646l161.021,0c7.762,0 11.642,3.883 11.642,11.646l0,34.533c0,7.767 -3.88,11.642 -11.642,11.642l-104.404,0l0,60.233l99.987,0c7.763,0 11.642,3.884 11.642,11.646l0,33.729c0,7.5 -3.879,11.242 -11.642,11.242" style="fill:#fff;fill-rule:nonzero;"/><path d="M1320.61,440.852l37.345,0c18.471,0 31.655,-3.145 39.555,-9.437c7.891,-6.283 11.845,-16.396 11.845,-30.317c0,-14.716 -3.887,-25.025 -11.65,-30.916c-7.762,-5.888 -20.879,-8.838 -39.345,-8.838l-37.75,0l0,79.508Zm-56.617,-137.733l95.167,0c39.883,0 69.729,7.7 89.545,23.088c19.805,15.4 29.713,40.358 29.713,74.891c0,44.338 -20.65,72.775 -61.942,85.325l60.229,85.129c2.671,3.53 3.275,6.925 1.805,10.188c-1.467,3.254 -4.355,4.875 -8.659,4.875l-46.766,0c-6.992,0 -12.505,-3.079 -16.538,-9.238l-55.421,-81.112l-30.516,0l0,78.708c0,7.771 -3.884,11.642 -11.642,11.642l-44.975,0c-7.767,0 -11.65,-3.871 -11.65,-11.642l0,-260.208c0,-7.763 3.883,-11.646 11.65,-11.646" style="fill:#fff;fill-rule:nonzero;"/><path d="M1689.24,470.165l-100.387,0l0,58.625l107.612,0c8.034,0 12.046,3.888 12.046,11.646l0,34.134c0,8.033 -4.012,12.045 -12.046,12.045l-163.829,0c-7.767,0 -11.65,-3.87 -11.65,-11.641l0,-260.209c0,-7.762 3.883,-11.645 11.65,-11.645l162.225,0c7.758,0 11.646,3.883 11.646,11.645l0,34.534c0,8.029 -3.888,12.046 -11.646,12.046l-106.008,0l0,53.408l100.387,0c7.492,0 11.242,3.879 11.242,11.646l0,32.121c0,7.77 -3.75,11.645 -11.242,11.645" style="fill:#fff;fill-rule:nonzero;"/><path d="M1918.91,470.165l-100.384,0l0,58.625l107.613,0c8.029,0 12.046,3.888 12.046,11.646l0,34.134c0,8.033 -4.017,12.045 -12.046,12.045l-163.829,0c-7.763,0 -11.646,-3.87 -11.646,-11.641l0,-260.209c0,-7.762 3.883,-11.645 11.646,-11.645l162.221,0c7.762,0 11.65,3.883 11.65,11.645l0,34.534c0,8.029 -3.888,12.046 -11.65,12.046l-106.005,0l0,53.408l100.384,0c7.491,0 11.241,3.879 11.241,11.646l0,32.121c0,7.77 -3.75,11.645 -11.241,11.645" style="fill:#fff;fill-rule:nonzero;"/><path d="M2148.59,477.793l-99.987,0l0,97.179c0,7.771 -3.884,11.646 -11.642,11.646l-44.975,0c-7.767,0 -11.65,-3.875 -11.65,-11.646l0,-260.204c0,-7.763 3.883,-11.646 11.65,-11.646l161.021,0c7.762,0 11.641,3.883 11.641,11.646l0,34.533c0,7.767 -3.879,11.642 -11.641,11.642l-104.404,0l0,60.233l99.987,0c7.763,0 11.642,3.884 11.642,11.646l0,33.729c0,7.5 -3.879,11.242 -11.642,11.242" style="fill:#fff;fill-rule:nonzero;"/><path d="M2348.57,482.212l0,92.762c0,7.767 -3.892,11.642 -11.646,11.642l-45.779,0c-7.767,0 -11.642,-3.875 -11.642,-11.642l0,-92.762l-91.554,-164.638c-2.146,-3.475 -2.413,-6.758 -0.8,-9.837c1.604,-3.071 4.412,-4.617 8.425,-4.617l47.775,0c6.95,0 12.171,3.621 15.654,10.854l38.254,76.233l16.379,37.796l0.8,0l16.463,-37.746l38.15,-76.295c3.475,-7.23 8.692,-10.842 15.658,-10.842l47.788,0c4.008,0 6.821,1.546 8.425,4.617c1.612,3.079 1.337,6.362 -0.8,9.837l-91.55,164.638Z" style="fill:#fff;fill-rule:nonzero;"/></g></g></svg>